{
  "accessors": [
    {
      "bufferView": 2,
      "componentType": 5126,
      "count": 534,
      "max": [
        8.536002159118652,
        -1.8851679563522339,
        22.086713790893555
      ],
      "min": [
        -8.017621040344238,
        -3.2431929111480713,
        -6.093955993652344
      ],
      "type": "VEC3"
    },
    {
      "bufferView": 2,
      "byteOffset": 6408,
      "componentType": 5126,
      "count": 534,
      "max": [
        0.9801435470581055,
        1.0,
        0.9618122577667236
      ],
      "min": [
        -0.9881156086921692,
        -1.0,
        -0.9584187269210815
      ],
      "type": "VEC3"
    },
    {
      "bufferView": 1,
      "componentType": 5126,
      "count": 534,
      "max": [
        1.0,
        0.9988870024681091
      ],
      "min": [
        0.5,
        0.02445399947464466
      ],
      "type": "VEC2"
    },
    {
      "bufferView": 0,
      "componentType": 5125,
      "count": 3180,
      "type": "SCALAR"
    }
  ],
  "asset": {
    "extras": {
      "author": "Huargenn (https://sketchfab.com/Huargenn)",
      "license": "CC-BY-4.0 (http://creativecommons.org/licenses/by/4.0/)",
      "source": "https://sketchfab.com/3d-models/symbol-of-the-horde-7d7b5df58fe7468695b629ec77f30171",
      "title": "Symbol of the Horde"
    },
    "generator": "Sketchfab-12.67.0",
    "version": "2.0"
  },
  "bufferViews": [
    {
      "buffer": 0,
      "byteLength": 12720,
      "name": "floatBufferViews",
      "target": 34963
    },
    {
      "buffer": 0,
      "byteLength": 4272,
      "byteOffset": 12720,
      "byteStride": 8,
      "name": "floatBufferViews",
      "target": 34962
    },
    {
      "buffer": 0,
      "byteLength": 12816,
      "byteOffset": 16992,
      "byteStride": 12,
      "name": "floatBufferViews",
      "target": 34962
    }
  ],
  "buffers": [
    {
      "byteLength": 29808,
      "uri": "scene.bin"
    }
  ],
  "materials": [
    {
      "doubleSided": true,
      "name": "Scene_-_Root",
      "pbrMetallicRoughness": {
        "baseColorFactor": [
          0.15326700942,
          0.001078062804,
          0.001078062804,
          1.0
        ],
        "metallicFactor": 0.0,
        "roughnessFactor": 0.6
      }
    }
  ],
  "meshes": [
    {
      "name": "Object_0",
      "primitives": [
        {
          "attributes": {
            "NORMAL": 1,
            "POSITION": 0,
            "TEXCOORD_0": 2
          },
          "indices": 3,
          "material": 0,
          "mode": 4
        }
      ]
    }
  ],
  "nodes": [
    {
      "children": [
        1
      ],
      "matrix": [
        1.0,
        0.0,
        0.0,
        0.0,
        0.0,
        2.220446049250313e-16,
        -1.0,
        0.0,
        0.0,
        1.0,
        2.220446049250313e-16,
        0.0,
        0.0,
        0.0,
        0.0,
        1.0
      ],
      "name": "Sketchfab_model"
    },
    {
      "children": [
        2
      ],
      "name": "8f0ddf3fe53f4d46879ed4de61d660f8.obj.cleaner"
    },
    {
      "mesh": 0,
      "name": "Object_2"
    }
  ],
  "scene": 0,
  "scenes": [
    {
      "name": "Sketchfab_Scene",
      "nodes": [
        0
      ]
    }
  ]
}
